<?xml version="1.0" encoding="UTF-8"?>
<svg width="260px" height="222px" viewBox="0 0 260 222" version="1.1" xmlns="http://www.w3.org/2000/svg" xmlns:xlink="http://www.w3.org/1999/xlink">
    <title>logo</title>
    <g id="Page-1" stroke="none" stroke-width="1" fill="none" fill-rule="evenodd">
        <g id="Liabilities" transform="translate(-130.000000, -24.000000)" fill="#192524">
            <path d="M134.182093,120 L268.407363,120 C293.576354,120 315.576519,103.000234 321.949933,78.6268133 L334.861549,29.2468414 C335.555058,26.5935891 333.555872,24 330.815493,24 L319.00059,24 C307.58889,24 297.613294,31.7077679 294.723554,42.7594759 L287.691692,69.6520824 C285.395888,78.430978 277.47207,84.5538138 268.407363,84.5538138 L194.000608,84.5538138 L194.000608,49.1195601 C194.000608,35.2461394 182.765616,24 168.906648,24 L162.771649,24 C160.462522,24 158.589556,25.8748245 158.589556,28.1869443 L158.589556,84.5538138 L134.182093,84.5538138 C131.872265,84.5538138 130,86.4279364 130,88.7400562 L130,115.813056 C130,118.125877 131.872265,120 134.182093,120 M130,179.427012 L130,152.20871 C130,149.884181 131.874916,148 134.188014,148 L230.940678,148 C259.899346,148 288.299752,158.012976 310.911795,176.191442 L388.41954,238.504205 C391.511395,240.989631 389.762879,246 385.803085,246 L349.794875,246 C344.088672,246 338.552404,244.048073 334.096144,240.466012 L288.76181,204.018751 C272.349628,190.824543 251.95799,183.636428 230.940678,183.636428 L194.091214,183.636428 L194.091214,220.744916 C194.091214,234.692796 182.840317,246 168.961728,246 L162.818044,246 C160.505648,246 158.630031,244.115113 158.630031,241.790584 L158.630031,183.636428 L134.188014,183.636428 C131.874916,183.636428 130,181.751541 130,179.427012" id="logo"></path>
        </g>
    </g>
</svg>